# xmcd
#
# Track frame offsets: 
#        150
#        10834
#        30901
#
# Disc length: 420 seconds
#
# Revision: 0
# Processed by: cddbd v1.5.2PL0 Copyright (c) Steve Scherf et al.
# Submitted via: ExactAudioCopyFreeDBPlugin 1.0
#
DISCID=1201a203
DTITLE=Разные артисты - Проба пера
DYEAR=2014
DGENRE=Folklore
TTITLE0=Гера - Нива-вальс
TTITLE1=Пожарные - В огне
TTITLE2=не знаю - просто не знаю что
EXTD=
EXTT0=
EXTT1=
EXTT2=
PLAYORDER=
